<mxfile host="app.diagrams.net" agent="Mozilla/5.0 (Macintosh; Intel Mac OS X 10_15_7) AppleWebKit/537.36 (KHTML, like Gecko) Chrome/135.0.0.0 Safari/537.36" version="26.2.14">
  <diagram name="第 1 页" id="PLK7-iM8lwANKItf3vmk">
    <mxGraphModel dx="1018" dy="689" grid="1" gridSize="10" guides="1" tooltips="1" connect="1" arrows="1" fold="1" page="1" pageScale="1" pageWidth="827" pageHeight="1169" math="0" shadow="0">
      <root>
        <mxCell id="0" />
        <mxCell id="1" parent="0" />
        <mxCell id="SYI_DHDsVVhUefW7UPwv-7" value="" style="rounded=0;whiteSpace=wrap;html=1;fillColor=#d5e8d4;strokeColor=#82b366;" vertex="1" parent="1">
          <mxGeometry x="90" y="220" width="300" height="220" as="geometry" />
        </mxCell>
        <mxCell id="SYI_DHDsVVhUefW7UPwv-2" value="" style="rounded=1;whiteSpace=wrap;html=1;fillColor=#f8cecc;strokeColor=#b85450;" vertex="1" parent="1">
          <mxGeometry x="110" y="240" width="110" height="170" as="geometry" />
        </mxCell>
        <mxCell id="SYI_DHDsVVhUefW7UPwv-3" value="" style="rounded=0;whiteSpace=wrap;html=1;" vertex="1" parent="1">
          <mxGeometry x="120" y="250" width="90" height="70" as="geometry" />
        </mxCell>
        <mxCell id="SYI_DHDsVVhUefW7UPwv-4" value="" style="rounded=1;whiteSpace=wrap;html=1;fillColor=#f8cecc;strokeColor=#b85450;" vertex="1" parent="1">
          <mxGeometry x="260" y="240" width="110" height="170" as="geometry" />
        </mxCell>
        <mxCell id="SYI_DHDsVVhUefW7UPwv-5" value="容器1" style="rounded=0;whiteSpace=wrap;html=1;" vertex="1" parent="1">
          <mxGeometry x="280" y="250" width="70" height="50" as="geometry" />
        </mxCell>
        <mxCell id="SYI_DHDsVVhUefW7UPwv-6" value="容器2" style="rounded=0;whiteSpace=wrap;html=1;" vertex="1" parent="1">
          <mxGeometry x="280" y="310" width="70" height="50" as="geometry" />
        </mxCell>
        <mxCell id="SYI_DHDsVVhUefW7UPwv-8" value="pod1&lt;div&gt;IP:10.0.0.1&lt;/div&gt;" style="text;html=1;align=center;verticalAlign=middle;whiteSpace=wrap;rounded=0;" vertex="1" parent="1">
          <mxGeometry x="135" y="370" width="60" height="30" as="geometry" />
        </mxCell>
        <mxCell id="SYI_DHDsVVhUefW7UPwv-10" value="宿主机" style="text;html=1;align=center;verticalAlign=middle;whiteSpace=wrap;rounded=0;" vertex="1" parent="1">
          <mxGeometry x="210" y="450" width="60" height="30" as="geometry" />
        </mxCell>
        <mxCell id="SYI_DHDsVVhUefW7UPwv-11" value="容器" style="text;html=1;align=center;verticalAlign=middle;whiteSpace=wrap;rounded=0;" vertex="1" parent="1">
          <mxGeometry x="110" y="250" width="60" height="30" as="geometry" />
        </mxCell>
        <mxCell id="SYI_DHDsVVhUefW7UPwv-12" value="进程2" style="rounded=0;whiteSpace=wrap;html=1;fillColor=#ffe6cc;strokeColor=#d79b00;" vertex="1" parent="1">
          <mxGeometry x="168" y="280" width="40" height="30" as="geometry" />
        </mxCell>
        <mxCell id="SYI_DHDsVVhUefW7UPwv-13" value="进程1" style="rounded=0;whiteSpace=wrap;html=1;fillColor=#ffe6cc;strokeColor=#d79b00;" vertex="1" parent="1">
          <mxGeometry x="123" y="280" width="40" height="30" as="geometry" />
        </mxCell>
        <mxCell id="SYI_DHDsVVhUefW7UPwv-15" value="pod2&lt;div&gt;IP:10.0.0.2&lt;/div&gt;" style="text;html=1;align=center;verticalAlign=middle;whiteSpace=wrap;rounded=0;" vertex="1" parent="1">
          <mxGeometry x="285" y="370" width="60" height="30" as="geometry" />
        </mxCell>
      </root>
    </mxGraphModel>
  </diagram>
</mxfile>
